<mxfile host="app.diagrams.net" modified="2024-04-23T13:03:30.616Z" agent="Mozilla/5.0 (Windows NT 10.0; Win64; x64) AppleWebKit/537.36 (KHTML, like Gecko) Chrome/124.0.0.0 Safari/537.36 Edg/124.0.0.0" version="24.2.8" etag="hz9DRAhx-n7rBge7lytD" type="github">
  <diagram name="Page-1" id="Y1D5WPo86NtVdflwME23">
    <mxGraphModel>
      <root>
        <mxCell id="0" />
        <mxCell id="1" parent="0" />
      </root>
    </mxGraphModel>
  </diagram>
</mxfile>
